<svg width="36" height="36" viewBox="0 0 36 36" fill="none" xmlns="http://www.w3.org/2000/svg">
<g clip-path="url(#clip0_56_13)">
<path d="M33.3425 0H2.6575C1.95269 0 1.27674 0.279986 0.778364 0.778364C0.279986 1.27674 0 1.95269 0 2.6575V33.3425C0 34.0473 0.279986 34.7233 0.778364 35.2216C1.27674 35.72 1.95269 36 2.6575 36H33.3425C34.0473 36 34.7233 35.72 35.2216 35.2216C35.72 34.7233 36 34.0473 36 33.3425V2.6575C36 1.95269 35.72 1.27674 35.2216 0.778364C34.7233 0.279986 34.0473 0 33.3425 0ZM10.73 30.6675H5.3175V13.475H10.73V30.6675ZM8.02 11.0925C7.40605 11.089 6.80687 10.9038 6.2981 10.5601C5.78933 10.2165 5.39376 9.7298 5.16132 9.16153C4.92887 8.59327 4.86997 7.96889 4.99205 7.36718C5.11412 6.76548 5.4117 6.21341 5.84723 5.78067C6.28276 5.34793 6.83672 5.0539 7.4392 4.93569C8.04168 4.81748 8.66567 4.88039 9.23243 5.11648C9.79919 5.35257 10.2833 5.75125 10.6237 6.26222C10.9641 6.77319 11.1455 7.37354 11.145 7.9875C11.1508 8.39855 11.0738 8.80656 10.9185 9.18721C10.7633 9.56785 10.533 9.91335 10.2414 10.2031C9.94974 10.4929 9.60277 10.7209 9.22114 10.8737C8.8395 11.0265 8.431 11.1009 8.02 11.0925ZM30.68 30.6825H25.27V21.29C25.27 18.52 24.0925 17.665 22.5725 17.665C20.9675 17.665 19.3925 18.875 19.3925 21.36V30.6825H13.98V13.4875H19.185V15.87H19.255C19.7775 14.8125 21.6075 13.005 24.4 13.005C27.42 13.005 30.6825 14.7975 30.6825 20.0475L30.68 30.6825Z" fill="#0A66C2"/>
</g>
<defs>
<clipPath id="clip0_56_13">
<rect width="36" height="36" fill="white"/>
</clipPath>
</defs>
</svg>
