<svg width="576" height="98" viewBox="0 0 576 98" fill="none" xmlns="http://www.w3.org/2000/svg">
<path fill-rule="evenodd" clip-rule="evenodd" d="M75.9961 40.108C75.9955 38.7292 75.6884 37.5109 75.0672 36.4652C74.457 35.437 73.5432 34.5752 72.3175 33.8938C62.1998 28.2933 52.0723 22.7099 41.9579 17.1037C39.2311 15.5925 36.5872 15.6476 33.8807 17.1805C29.8535 19.4605 9.69098 30.5499 3.68281 33.8906C1.20847 35.2657 0.00446041 37.3702 0.00386569 40.1055C0 51.3684 0.00386569 62.6311 0 73.8943C0.000594721 75.2428 0.294684 76.4375 0.888513 77.4674C1.49899 78.5268 2.42557 79.4123 3.67954 80.1091C9.68801 83.4499 29.8532 94.5384 33.8795 96.819C36.5872 98.3528 39.2311 98.4076 41.9588 96.8958C52.0735 91.2893 62.2016 85.7062 72.3208 80.1057C73.5747 79.4092 74.5013 78.5231 75.1118 77.4646C75.7047 76.4346 75.9994 75.24 76 73.8912C76 73.8912 76 51.3713 75.9961 40.108Z" fill="#5C8DBC"/>
<path fill-rule="evenodd" clip-rule="evenodd" d="M38.1163 56.8901L0.888519 77.4675C1.499 78.5268 2.42558 79.4123 3.67955 80.1091C9.68801 83.4499 29.8532 94.5384 33.8795 96.819C36.5872 98.3528 39.2311 98.4076 41.9588 96.8958C52.0735 91.2893 62.2016 85.7062 72.3208 80.1057C73.5747 79.4092 74.5013 78.5231 75.1118 77.4646L38.1163 56.8901Z" fill="#1A4674"/>
<path fill-rule="evenodd" clip-rule="evenodd" d="M27.0898 62.9853C29.2561 66.6159 33.3285 69.0646 38 69.0646C42.7004 69.0646 46.7959 66.5847 48.9512 62.9154L38.1163 56.8901L27.0898 62.9853Z" fill="#1A4674"/>
<path fill-rule="evenodd" clip-rule="evenodd" d="M75.9961 40.108C75.9955 38.7292 75.6884 37.5109 75.0672 36.4652L38.1163 56.8901L75.1118 77.4646C75.7047 76.4346 75.9994 75.2399 76 73.8911C76 73.8911 76 51.3712 75.9961 40.108Z" fill="#1B598E"/>
<path fill-rule="evenodd" clip-rule="evenodd" d="M73.9619 58.3608H71.0709V61.1366H68.1794V58.3608H65.2888V55.5858H68.1794V52.8105H71.0709V55.5858H73.9619V58.3608Z" fill="white"/>
<path fill-rule="evenodd" clip-rule="evenodd" d="M63.413 58.3608H60.5224V61.1366H57.6314V58.3608H54.7405V55.5858H57.6314V52.8105H60.5224V55.5858H63.413V58.3608Z" fill="white"/>
<path fill-rule="evenodd" clip-rule="evenodd" d="M48.9512 62.9154C46.7959 66.5847 42.7004 69.0646 38 69.0646C33.3285 69.0646 29.2561 66.6159 27.0899 62.9853C26.0375 61.2212 25.4324 59.1787 25.4324 56.9998C25.4324 50.3368 31.0593 44.9352 38 44.9352C42.6415 44.9352 46.6925 47.3534 48.8694 50.9468L59.8542 44.8744C55.4881 37.6391 47.3365 32.7714 38 32.7714C24.0609 32.7714 12.7615 43.619 12.7615 56.9998C12.7615 61.3896 13.978 65.5063 16.1042 69.0571C20.4593 76.3307 28.634 81.2284 38 81.2284C47.3832 81.2284 55.5707 76.311 59.9196 69.016L48.9512 62.9154Z" fill="white"/>
<path d="M362.586 25.4335C362.586 20.5798 363.917 17.9393 371.267 16.682C376.258 15.8269 382.656 15.72 388.624 16.682C393.338 17.4427 397.305 20.8755 397.305 25.4335V41.4468C397.305 46.1434 393.453 49.9906 388.624 49.9906H371.267C365.377 49.9906 360.412 54.901 360.412 60.4523V68.1353H354.444C349.396 68.1353 346.457 64.5767 345.223 59.5972C343.557 52.9075 343.628 48.9217 345.223 42.515C346.605 36.9259 351.023 33.9769 356.072 33.9769H379.949V31.8392H362.586V25.4331L362.586 25.4335Z" fill="url(#paint0_linear_115_2)"/>
<path d="M397.306 76.6794C397.306 81.5331 392.997 83.9915 388.624 85.2175C382.046 87.0659 376.766 86.783 371.268 85.2175C366.676 83.9099 362.586 81.2378 362.586 76.6794V60.6661C362.586 56.0575 366.516 52.1223 371.268 52.1223H388.624C394.406 52.1223 399.48 47.2376 399.48 41.4469V33.9777H405.987C411.042 33.9777 413.422 37.6492 414.669 42.5157C416.405 49.2745 416.482 54.3292 414.669 59.5979C412.913 64.7157 411.035 68.136 405.987 68.136H379.949V70.2737H397.306V76.6794Z" fill="url(#paint1_linear_115_2)"/>
<path d="M366.927 24.3709C366.927 22.598 368.38 21.1643 370.181 21.1643C371.975 21.1643 373.435 22.5977 373.435 24.3709C373.435 26.1381 371.976 27.5711 370.181 27.5711C368.381 27.5711 366.927 26.1377 366.927 24.3709ZM386.456 77.7421C386.456 75.9749 387.916 74.5419 389.711 74.5419C391.511 74.5419 392.965 75.9752 392.965 77.7421C392.965 79.5149 391.512 80.9487 389.711 80.9487C387.917 80.9487 386.456 79.5153 386.456 77.7421Z" fill="white"/>
<path d="M192.511 69.6023C192.511 69.6023 188.728 71.6023 195.202 72.279C203.046 73.0925 207.054 72.9761 215.698 71.4884C215.698 71.4884 217.971 72.784 221.144 73.9063C201.768 81.4572 177.291 73.4688 192.511 69.6023ZM190.143 59.7487C190.143 59.7487 185.9 62.6041 192.38 63.2134C200.758 63.9993 207.375 64.0636 218.824 62.059C218.824 62.059 220.408 63.5188 222.898 64.3172C199.471 70.5461 173.377 64.8084 190.143 59.7487Z" fill="#5382A1"/>
<path d="M210.103 43.0339C214.878 48.0318 208.849 52.5295 208.849 52.5295C208.849 52.5295 220.972 46.8391 215.404 39.7133C210.204 33.0684 206.217 29.7663 227.804 18.3826C227.804 18.3826 193.919 26.0778 210.103 43.0339Z" fill="#E76F00"/>
<path d="M235.73 76.8905C235.73 76.8905 238.529 78.9874 232.647 80.6098C221.463 83.6906 186.097 84.6209 176.272 80.7325C172.741 79.3358 179.364 77.3971 181.447 76.99C183.62 76.5616 184.861 76.6416 184.861 76.6416C180.934 74.1257 159.475 81.5815 173.961 83.7164C213.468 89.542 245.977 81.0934 235.73 76.8905ZM194.329 49.5393C194.329 49.5393 176.34 53.4246 187.959 54.8351C192.865 55.4323 202.644 55.2974 211.754 54.6032C219.199 54.0325 226.674 52.8182 226.674 52.8182C226.674 52.8182 224.049 53.8405 222.15 55.0196C203.882 59.3882 168.592 57.356 178.751 52.8872C187.343 49.1109 194.329 49.5393 194.329 49.5393ZM226.6 65.9408C245.171 57.1665 236.584 48.7346 230.591 49.8707C229.122 50.1485 228.468 50.3893 228.468 50.3893C228.468 50.3893 229.013 49.6128 230.054 49.2766C241.91 45.4865 251.029 60.4548 226.227 66.383C226.227 66.3833 226.514 66.1498 226.6 65.9408Z" fill="#5382A1"/>
<path d="M215.404 0.000260579C215.404 0.000260579 225.689 9.35515 205.65 23.7395C189.581 35.2786 201.986 41.8578 205.643 49.3748C196.263 41.6798 189.38 34.9057 193.998 28.6012C200.776 19.3461 219.554 14.8594 215.404 0.000260579Z" fill="#E76F00"/>
<path d="M196.154 89.717C213.979 90.7546 241.352 89.1414 242 81.4722C242 81.4722 240.754 84.3797 227.268 86.6885C212.054 89.2917 193.29 88.9879 182.161 87.3194C182.161 87.3194 184.439 89.034 196.154 89.717Z" fill="#5382A1"/>
<path d="M519.998 31.6893H515.58L527.624 65.7357L534.367 46.4672L529.139 31.6893H524.478V28.4452H545.119V31.6893H540.286L552.33 65.7357L556.659 53.3635C562.338 37.5123 552.004 32.5746 552.004 29.0371C552.004 25.4995 554.872 22.6319 558.41 22.6319C558.601 22.6319 558.787 22.6422 558.969 22.6592C552.975 17.001 544.893 13.5311 536 13.5311C524.379 13.5311 514.143 19.4544 508.143 28.4452H519.997V31.6893H519.998Z" fill="#00769D"/>
<path d="M502.531 47C502.531 59.8136 509.733 70.9435 520.309 76.5676L505.205 33.8724C503.485 37.9032 502.531 42.3402 502.531 47Z" fill="#00769D"/>
<path d="M565.128 30.5077C565.606 33.3265 565.461 36.4947 564.727 39.6753H564.86L564.354 41.1213C564.054 42.1655 563.676 43.2336 563.247 44.2831L551.731 76.546C562.285 70.9151 569.468 59.7972 569.468 46.9999C569.468 41.0032 567.89 35.3757 565.128 30.5077Z" fill="#00769D"/>
<path d="M525.678 78.8439C528.929 79.8971 532.398 80.4684 536 80.4684C539.436 80.4684 542.751 79.9499 545.871 78.9879L536.081 51.3138L525.678 78.8439Z" fill="#00769D"/>
<path d="M564.284 18.7157C556.729 11.1607 546.684 7 536 7C525.315 7 515.271 11.1607 507.716 18.7157C500.161 26.2706 496 36.3154 496 47C496 57.6844 500.161 67.7292 507.716 75.2842C515.271 82.8391 525.316 86.9998 536 86.9998C546.684 86.9998 556.729 82.8391 564.284 75.2842C571.839 67.7292 576 57.6842 576 47C576 36.3154 571.839 26.2706 564.284 18.7157ZM536 84.1781C515.5 84.1781 498.822 67.5001 498.822 47C498.822 26.4999 515.5 9.8217 536 9.8217C556.5 9.8217 573.178 26.4999 573.178 47C573.178 67.5001 556.5 84.1781 536 84.1781Z" fill="#00769D"/>
<defs>
<linearGradient id="paint0_linear_115_2" x1="397.306" y1="36.2675" x2="344.001" y2="35.834" gradientUnits="userSpaceOnUse">
<stop stop-color="#366A96"/>
<stop offset="1" stop-color="#3679B0"/>
</linearGradient>
<linearGradient id="paint1_linear_115_2" x1="416" y1="60.2389" x2="310.481" y2="60.2389" gradientUnits="userSpaceOnUse">
<stop stop-color="#FFC836"/>
<stop offset="1" stop-color="#FFE873"/>
</linearGradient>
</defs>
</svg>
