<svg width="1126" height="96" viewBox="0 0 1126 96" fill="none" xmlns="http://www.w3.org/2000/svg">
<path d="M0.00815369 2.83988L5.57588 74.069C5.65947 75.1386 6.38347 76.0507 7.40624 76.375L36.7038 85.6637C37.2219 85.8279 37.7781 85.8279 38.2962 85.6637L67.5937 76.375C68.6165 76.0507 69.3405 75.1386 69.4241 74.069L74.9918 2.83988C75.1116 1.3085 73.9013 0 72.3653 0H2.63483C1.0989 0 -0.111393 1.3085 0.00815369 2.83988ZM60.7138 24.9399H24.4278L25.5229 35.0382H59.9245L57.6741 63.8269L37.5001 70.2229L17.3261 63.8269L16.1504 48.7865H26.7393V56.164L37.783 59.128L48.7608 56.164L49.6125 44.4063H15.8079L13.5636 15.6931H61.4364L60.7138 24.9399Z" fill="#FC490B"/>
<g clip-path="url(#clip0_109_73)">
<path d="M176.28 76.9909L170 0.144287L245 0.298717L238.359 76.9909L207.783 85.8558L176.28 76.9909Z" fill="#1B73BA"/>
<path d="M207.783 78.434V7.46301L238.669 7.56597L233.161 71.0638L207.783 78.434Z" fill="#1C88C7"/>
<path d="M230.999 16.5344H183.487L184.774 25.8111H207.32L185.134 35.3464L186.421 44.3142H219.108L217.924 56.8381L206.856 59.0032L196.819 56.4263L196.047 49.3135H186.833L188.068 64.106L207.834 69.6207L226.778 63.5907L229.197 34.676H209.172L230.998 25.6052L230.999 16.5344Z" fill="white"/>
</g>
<g clip-path="url(#clip1_109_73)">
<path d="M339 0H423V86H339V0Z" fill="#F7DF1E"/>
<path d="M361.087 71.8678L367.515 67.8849C368.755 70.136 369.883 72.0408 372.589 72.0408C375.183 72.0408 376.819 71.0021 376.819 66.9614V39.4824H384.712V67.0756C384.712 75.4462 379.92 79.2564 372.927 79.2564C366.613 79.2564 362.947 75.9081 361.086 71.8671M389 71.0017L395.427 67.1919C397.119 70.0208 399.319 72.0989 403.209 72.0989C406.48 72.0989 408.565 70.4246 408.565 68.1154C408.565 65.3445 406.423 64.3629 402.814 62.7471L400.841 61.8804C395.146 59.3988 391.368 56.2813 391.368 49.7003C391.368 43.6386 395.879 39.0201 402.927 39.0201C407.946 39.0201 411.554 40.81 414.148 45.4859L408.001 49.5273C406.648 47.045 405.182 46.0637 402.927 46.0637C400.615 46.0637 399.149 47.5647 399.149 49.5273C399.149 51.9517 400.615 52.9337 403.998 54.4346L405.971 55.3003C412.681 58.2448 416.459 61.2464 416.459 68.0001C416.459 75.2745 410.877 79.2574 403.378 79.2574C396.048 79.2574 391.311 75.6783 389 71.0021" fill="black"/>
</g>
<path d="M541.5 0C540.33 0 539.192 0.239423 538.185 0.80398L506.316 19.0356C504.254 20.2132 503 22.436 503 24.8014V61.1985C503 63.562 504.254 65.782 506.316 66.9624L514.639 71.722C518.682 73.6961 520.173 73.6653 522.013 73.6653C528 73.6653 531.418 70.0665 531.418 63.8126V27.8841C531.418 27.3763 530.974 27.013 530.471 27.013H526.479C525.968 27.013 525.532 27.3763 525.532 27.8841V63.8126C525.532 66.5842 522.617 69.3725 517.887 67.0295L509.226 62.0025C508.919 61.8376 508.684 61.546 508.684 61.1985V24.8004C508.684 24.4557 508.916 24.1045 509.226 23.9294L541.027 5.76574C541.17 5.68258 541.334 5.63875 541.5 5.63875C541.666 5.63875 541.83 5.68258 541.973 5.76574L573.775 23.9303C574.078 24.111 574.317 24.4455 574.317 24.8023V61.1994C574.317 61.5469 574.14 61.9028 573.843 62.0705L541.973 80.2351C541.701 80.3962 541.325 80.3962 541.027 80.2351L532.839 75.4093C532.715 75.3424 532.575 75.3073 532.433 75.3073C532.292 75.3073 532.152 75.3424 532.028 75.4093C529.768 76.6782 529.343 76.8254 527.223 77.5539C526.701 77.7346 525.908 78.015 527.494 78.8954L538.185 85.1279C539.193 85.704 540.337 86.0049 541.5 85.9999C542.664 86.0071 543.808 85.7064 544.815 85.1288L576.685 66.9633C578.747 65.7755 580 63.5629 580 61.1994V24.8014C580 22.4369 578.747 20.2178 576.685 19.0375L544.815 0.805846C543.817 0.240357 542.671 0.0009311 541.5 0.0009311L541.5 0Z" fill="#83CD29"/>
<path d="M550.025 26.0078C540.95 26.0078 535.546 29.8339 535.546 36.1968C535.546 43.0982 540.91 44.995 549.62 45.8483C560.04 46.8591 560.851 48.3749 560.851 50.4067C560.851 53.931 558.015 55.4337 551.312 55.4337C542.889 55.4337 541.038 53.3506 540.418 49.2003C540.345 48.755 539.998 48.3954 539.538 48.3954H535.41C534.903 48.3954 534.463 48.8295 534.463 49.3344C534.463 54.6474 537.381 60.9302 551.312 60.9302C561.396 60.9302 567.212 57.0091 567.212 50.1384C567.212 43.3283 562.514 41.4996 552.732 40.2186C542.848 38.9227 541.906 38.2883 541.906 35.9956C541.906 34.1026 542.705 31.5705 550.025 31.5705C556.565 31.5705 558.982 32.9679 559.972 37.3362C560.059 37.7461 560.423 38.0731 560.851 38.0731H564.98C565.234 38.0731 565.48 37.9185 565.656 37.7377C565.829 37.5449 565.951 37.3278 565.927 37.0679C565.287 29.5461 560.224 26.0078 550.025 26.0078Z" fill="#83CD29"/>
<path d="M742 68.6255C738.908 69.4706 736.996 68.6627 735.28 65.8935L723.077 47.7483L721.313 45.2361L707.062 65.9534C705.434 68.4457 703.726 69.5305 700.687 68.6484L718.936 42.3213L701.946 18.5408C704.868 17.9298 706.887 18.241 708.68 21.053L721.337 39.4237L734.087 21.1529C735.721 18.6607 737.476 17.7129 740.409 18.6321L733.821 28.0187L724.896 40.5085C723.834 41.9359 723.98 42.9123 724.957 44.2911L742 68.6255ZM657.021 41.8817L658.514 33.991C662.578 18.3752 679.233 11.8862 690.718 21.5355C697.431 27.2108 699.099 35.2385 698.767 44.2312H660.931C660.363 60.418 671.203 70.1871 685.023 65.2026C689.871 63.4526 692.727 59.3731 694.156 54.2687C694.881 51.7108 696.081 51.3111 698.318 52.042C697.176 58.4253 694.599 63.7581 689.154 67.0954C681.018 72.0913 669.405 70.4755 663.295 63.5326C659.656 59.5044 658.153 54.4 657.478 48.9416C657.372 48.0395 657.159 47.1802 657 46.3152C657.014 44.8383 657.021 43.3614 657.021 41.8845V41.8817ZM661 40.7969H695.192C694.968 29.0921 688.187 20.7789 678.919 20.7076C668.746 20.6219 661.441 28.7381 661 40.7969Z" fill="black"/>
<path d="M841.805 7.24036L844.794 11.6514C845.466 12.4654 846.194 13.1859 847.051 13.8569C849.554 15.8231 851.93 17.8829 854.065 20.0884C859.13 25.3134 862.546 31.1159 864.985 37.3914C866.448 41.2249 867.243 45.1574 867.302 49.1339C867.547 61.0221 862.36 71.2301 851.902 79.7139C850.194 81.0559 848.367 82.2989 846.407 83.4044C845.371 83.4044 844.881 82.7801 844.454 82.2054C843.66 81.1521 843.173 79.9504 842.928 78.7541C842.561 77.3159 842.319 75.8776 842.438 74.3926V73.7216C842.354 73.5786 841.441 7.57861 841.805 7.24036Z" fill="#599636"/>
<path d="M841.805 7.09461C841.682 6.90211 841.56 7.04786 841.437 7.14136C841.497 8.10386 841.07 8.96186 840.401 9.78136C839.666 10.5954 838.693 11.2196 837.717 11.8906C832.292 15.5811 828.022 20.0389 824.602 25.0246C820.052 31.7346 817.707 38.9259 817.042 46.4966C816.738 49.2274 818.141 58.8634 819.237 61.6436C822.226 69.0246 827.595 75.2094 834.549 80.5774C836.257 81.8699 838.084 83.0689 839.974 84.2211C840.524 84.2211 840.583 83.8361 840.709 83.5501C840.95 82.9381 841.134 82.3131 841.259 81.6801L842.484 74.4916L841.805 7.09461Z" fill="#6CAC48"/>
<path d="M844.794 86.3249C844.916 85.2248 845.588 84.3119 846.32 83.4016C845.585 83.1624 845.039 82.6866 844.612 82.1559C844.244 81.6774 843.94 81.1026 843.702 80.5746C842.848 78.5616 842.666 76.4496 842.421 74.3926V73.1469C842.116 73.3394 842.053 74.9674 842.053 75.2094C841.875 77.3834 841.508 79.5454 840.954 81.6801C840.772 82.5436 840.65 83.4044 839.974 84.1716C839.974 84.2679 839.974 84.3641 840.034 84.5071C841.133 87.0481 841.434 89.6359 841.619 92.2731V93.2356C841.619 94.3851 841.56 94.1431 842.774 94.5281C843.264 94.6711 843.81 94.7206 844.3 95.0066C844.668 95.0066 844.727 94.7673 844.727 94.5749L844.545 92.9936V88.5826C844.486 87.8126 844.668 87.0481 844.79 86.3276L844.794 86.3249Z" fill="#C2BFBF"/>
<mask id="mask0_109_73" style="mask-type:luminance" maskUnits="userSpaceOnUse" x="936" y="8" width="62" height="76">
<path d="M997.374 43.0696L976.916 63.5348L997.374 84H973.996L953.531 63.5348L973.996 43.0696H997.374ZM973.996 8L936 45.9963L947.692 57.6886L997.374 8H973.996Z" fill="white"/>
</mask>
<g mask="url(#mask0_109_73)">
<path d="M953.538 63.5349L965.223 75.2272L997.374 43.0697H973.996L953.538 63.5349Z" fill="#39CEFD"/>
</g>
<mask id="mask1_109_73" style="mask-type:luminance" maskUnits="userSpaceOnUse" x="936" y="8" width="62" height="76">
<path d="M997.374 43.0696L976.916 63.5348L997.374 84H973.996L953.531 63.5348L973.996 43.0696H997.374ZM973.996 8L936 45.9963L947.692 57.6886L997.374 8H973.996Z" fill="white"/>
</mask>
<g mask="url(#mask1_109_73)">
<path d="M973.996 8H997.374L947.692 57.6886L936 45.9963L973.996 8Z" fill="#39CEFD"/>
</g>
<mask id="mask2_109_73" style="mask-type:luminance" maskUnits="userSpaceOnUse" x="936" y="8" width="62" height="76">
<path d="M997.374 43.0696L976.916 63.5348L997.374 84H973.996L953.531 63.5348L973.996 43.0696H997.374ZM973.996 8L936 45.9963L947.692 57.6886L997.374 8H973.996Z" fill="white"/>
</mask>
<g mask="url(#mask2_109_73)">
<path d="M965.223 75.227L973.996 83.9925H997.374L976.916 63.5347L965.223 75.227Z" fill="#03569B"/>
</g>
<mask id="mask3_109_73" style="mask-type:luminance" maskUnits="userSpaceOnUse" x="936" y="8" width="62" height="76">
<path d="M997.374 43.0696L976.916 63.5348L997.374 84H973.996L953.531 63.5348L973.996 43.0696H997.374ZM973.996 8L936 45.9963L947.692 57.6886L997.374 8H973.996Z" fill="white"/>
</mask>
<g mask="url(#mask3_109_73)">
<path d="M982.564 69.2199L976.916 63.5347L965.223 75.227L982.564 69.2199Z" fill="url(#paint0_linear_109_73)"/>
</g>
<mask id="mask4_109_73" style="mask-type:luminance" maskUnits="userSpaceOnUse" x="936" y="8" width="62" height="76">
<path d="M997.374 43.0696L976.916 63.5348L997.374 84H973.996L953.531 63.5348L973.996 43.0696H997.374ZM973.996 8L936 45.9963L947.692 57.6886L997.374 8H973.996Z" fill="white"/>
</mask>
<g mask="url(#mask4_109_73)">
<path d="M953.537 63.5308L965.23 51.8381L976.923 63.5308L965.23 75.2235L953.537 63.5308Z" fill="#16B9FD"/>
</g>
<path d="M997.374 43.0696L976.916 63.5348L997.374 84H973.996L953.531 63.5348L973.996 43.0696H997.374ZM973.996 8L936 45.9963L947.692 57.6886L997.374 8H973.996Z" fill="url(#paint1_radial_109_73)"/>
<path d="M1102.65 31.063L1093.23 39.0715L1084.49 22.9603L1089 13.6967C1090.14 11.8488 1092.01 11.8244 1093.15 13.6967L1102.65 31.063Z" fill="#FFA000"/>
<path d="M1093.23 39.0681L1058 68.9929L1084.49 22.9604L1093.23 39.0681Z" fill="#F57F17"/>
<path d="M1112.98 18.815C1114.66 17.3472 1116.4 17.8423 1116.84 19.9272L1126 68.5884L1095.62 85.2435C1094.55 85.7874 1091.73 86.0001 1091.73 86.0001C1091.73 86.0001 1089.16 85.7142 1088.17 85.2191L1058 68.9929L1112.98 18.815Z" fill="#FFCA28"/>
<path d="M1084.49 22.9604L1058 68.9928L1069.81 1.71012C1070.25 -0.374813 1071.54 -0.58749 1072.71 1.26036L1084.49 22.9604Z" fill="#FFA000"/>
<defs>
<linearGradient id="paint0_linear_109_73" x1="968.636" y1="77.4834" x2="977.344" y2="68.7753" gradientUnits="userSpaceOnUse">
<stop stop-color="#1A237E" stop-opacity="0.4"/>
<stop offset="1" stop-color="#1A237E" stop-opacity="0"/>
</linearGradient>
<radialGradient id="paint1_radial_109_73" cx="0" cy="0" r="1" gradientUnits="userSpaceOnUse" gradientTransform="translate(937.724 13.1799) scale(92.9767)">
<stop stop-color="white" stop-opacity="0.1"/>
<stop offset="1" stop-color="white" stop-opacity="0"/>
</radialGradient>
<clipPath id="clip0_109_73">
<rect width="75" height="86" fill="white" transform="translate(170)"/>
</clipPath>
<clipPath id="clip1_109_73">
<rect width="84" height="86" fill="white" transform="translate(339)"/>
</clipPath>
</defs>
</svg>
